<?xml version="1.0" encoding="UTF-8"?>
<svg xmlns="http://www.w3.org/2000/svg" viewBox="0 0 1024 1024" width="1024" height="1024">
  <defs>
    <!-- Background -->
    <linearGradient id="bg" x1="0%" y1="0%" x2="100%" y2="100%">
      <stop offset="0%" stop-color="#0A1628"/>
      <stop offset="100%" stop-color="#0E2240"/>
    </linearGradient>
    <!-- Cancer cell: hot orange-red -->
    <radialGradient id="cancerGrad" cx="38%" cy="32%" r="68%">
      <stop offset="0%" stop-color="#FF7043"/>
      <stop offset="55%" stop-color="#E53935"/>
      <stop offset="100%" stop-color="#8B1010"/>
    </radialGradient>
    <!-- T cell: teal-cyan -->
    <radialGradient id="tcellGrad" cx="33%" cy="28%" r="72%">
      <stop offset="0%" stop-color="#4DD0E1"/>
      <stop offset="60%" stop-color="#0288D1"/>
      <stop offset="100%" stop-color="#01579B"/>
    </radialGradient>
    <!-- Small T cell (more distant) -->
    <radialGradient id="tcell2Grad" cx="33%" cy="28%" r="72%">
      <stop offset="0%" stop-color="#80DEEA"/>
      <stop offset="60%" stop-color="#26C6DA"/>
      <stop offset="100%" stop-color="#0097A7"/>
    </radialGradient>
    <!-- Glow for cancer cell -->
    <filter id="cancerGlow" x="-30%" y="-30%" width="160%" height="160%">
      <feGaussianBlur stdDeviation="14" result="blur"/>
      <feMerge><feMergeNode in="blur"/><feMergeNode in="SourceGraphic"/></feMerge>
    </filter>
    <!-- Glow for T cells -->
    <filter id="tcellGlow" x="-25%" y="-25%" width="150%" height="150%">
      <feGaussianBlur stdDeviation="10" result="blur"/>
      <feMerge><feMergeNode in="blur"/><feMergeNode in="SourceGraphic"/></feMerge>
    </filter>
    <!-- Soft outer glow for cancer -->
    <filter id="outerGlow" x="-40%" y="-40%" width="180%" height="180%">
      <feGaussianBlur stdDeviation="25" result="blur"/>
      <feColorMatrix in="blur" type="matrix" values="1 0.3 0 0 0  0.1 0 0 0 0  0 0 0 0 0  0 0 0 0.6 0" result="red"/>
      <feMerge><feMergeNode in="red"/><feMergeNode in="SourceGraphic"/></feMerge>
    </filter>
  </defs>

  <!-- ── Squircle background ── -->
  <rect width="1024" height="1024" rx="225" fill="url(#bg)"/>

  <!-- ── Subtle radial vignette ── -->
  <radialGradient id="vignette" cx="50%" cy="50%" r="70%">
    <stop offset="0%" stop-color="#1B3560" stop-opacity="0"/>
    <stop offset="100%" stop-color="#050C18" stop-opacity="0.55"/>
  </radialGradient>
  <rect width="1024" height="1024" rx="225" fill="url(#vignette)"/>

  <!-- ══════════════════════════════════════════════════
       IMMUNE SYNAPSES — dashed lines from T cells
       ══════════════════════════════════════════════════ -->

  <!-- Synapse: top-left T cell → cancer -->
  <line x1="310" y1="295" x2="440" y2="430"
        stroke="#26C6DA" stroke-width="9" stroke-opacity="0.45"
        stroke-dasharray="14 10" stroke-linecap="round"/>

  <!-- Synapse: right T cell → cancer -->
  <line x1="738" y1="468" x2="618" y2="500"
        stroke="#26C6DA" stroke-width="9" stroke-opacity="0.45"
        stroke-dasharray="14 10" stroke-linecap="round"/>

  <!-- Synapse: bottom T cell → cancer -->
  <line x1="488" y1="770" x2="502" y2="640"
        stroke="#26C6DA" stroke-width="9" stroke-opacity="0.45"
        stroke-dasharray="14 10" stroke-linecap="round"/>

  <!-- ── Molecule particles (perforin / granzyme release) ── -->
  <!-- top-left synapse particles -->
  <circle cx="368" cy="356" r="8" fill="#4DD0E1" opacity="0.75"/>
  <circle cx="392" cy="336" r="5.5" fill="#80DEEA" opacity="0.6"/>
  <circle cx="420" cy="322" r="7" fill="#4DD0E1" opacity="0.65"/>

  <!-- right synapse particles -->
  <circle cx="672" cy="475" r="8" fill="#4DD0E1" opacity="0.75"/>
  <circle cx="650" cy="480" r="5" fill="#80DEEA" opacity="0.6"/>
  <circle cx="630" cy="486" r="7" fill="#4DD0E1" opacity="0.65"/>

  <!-- bottom synapse particles -->
  <circle cx="494" cy="712" r="7" fill="#4DD0E1" opacity="0.7"/>
  <circle cx="500" cy="690" r="5" fill="#80DEEA" opacity="0.55"/>
  <circle cx="503" cy="668" r="6.5" fill="#4DD0E1" opacity="0.65"/>

  <!-- ══════════════════════════════════════════════════
       CANCER CELL — irregular blob, center
       ══════════════════════════════════════════════════ -->

  <!-- Outer glow halo -->
  <path d="M 512 348
           C 578 322, 648 358, 672 420
           C 702 498, 685 574, 640 622
           C 604 660, 556 674, 502 668
           C 446 662, 394 630, 366 582
           C 332 524, 336 456, 364 406
           C 390 360, 448 374, 512 348 Z"
        fill="#E53935" opacity="0.18" filter="url(#outerGlow)"/>

  <!-- Cancer cell body -->
  <path d="M 512 360
           C 572 336, 638 368, 660 428
           C 686 496, 670 568, 628 614
           C 594 650, 548 662, 500 656
           C 450 650, 400 622, 374 576
           C 342 520, 348 454, 376 408
           C 400 367, 454 382, 512 360 Z"
        fill="url(#cancerGrad)" filter="url(#cancerGlow)"/>

  <!-- Cancer nucleus -->
  <ellipse cx="508" cy="510" rx="68" ry="62" fill="#6B0E0E" opacity="0.62"/>
  <ellipse cx="508" cy="510" rx="38" ry="34" fill="#4A0808" opacity="0.55"/>

  <!-- Cancer surface proteins (antigen bumps) -->
  <circle cx="628" cy="388" r="14" fill="#FF8A65" opacity="0.85"/>
  <circle cx="660" cy="500" r="12" fill="#FF7043" opacity="0.8"/>
  <circle cx="620" cy="626" r="13" fill="#FF8A65" opacity="0.8"/>
  <circle cx="494" cy="660" r="11" fill="#FF7043" opacity="0.75"/>
  <circle cx="378" cy="592" r="12" fill="#FF8A65" opacity="0.8"/>
  <circle cx="360" cy="466" r="13" fill="#FF7043" opacity="0.8"/>
  <circle cx="406" cy="365" r="11" fill="#FF8A65" opacity="0.75"/>

  <!-- ══════════════════════════════════════════════════
       T CELL 1 — top-left, closest / largest
       ══════════════════════════════════════════════════ -->
  <circle cx="264" cy="262" r="100" fill="url(#tcellGrad)" filter="url(#tcellGlow)"/>
  <!-- nucleus -->
  <ellipse cx="268" cy="270" rx="36" ry="32" fill="#01579B" opacity="0.65"/>
  <!-- TCR (T cell receptor) — Y-shape on attack-facing side -->
  <!-- Receptor stem -->
  <line x1="345" y1="275" x2="374" y2="294" stroke="white" stroke-width="9" stroke-linecap="round" opacity="0.9"/>
  <!-- Receptor arms -->
  <line x1="374" y1="294" x2="396" y2="278" stroke="white" stroke-width="7" stroke-linecap="round" opacity="0.9"/>
  <line x1="374" y1="294" x2="388" y2="316" stroke="white" stroke-width="7" stroke-linecap="round" opacity="0.9"/>
  <!-- CD8 co-receptor dots -->
  <circle cx="332" cy="240" r="10" fill="#E0F7FA" opacity="0.85"/>
  <circle cx="352" cy="222" r="8" fill="#B2EBF2" opacity="0.75"/>
  <!-- Activation ring -->
  <circle cx="264" cy="262" r="100" fill="none" stroke="#80DEEA" stroke-width="4" stroke-opacity="0.4" stroke-dasharray="20 12"/>

  <!-- ══════════════════════════════════════════════════
       T CELL 2 — right, attacking
       ══════════════════════════════════════════════════ -->
  <circle cx="782" cy="455" r="90" fill="url(#tcellGrad)" filter="url(#tcellGlow)"/>
  <!-- nucleus -->
  <ellipse cx="778" cy="462" rx="32" ry="30" fill="#01579B" opacity="0.65"/>
  <!-- TCR pointing LEFT toward cancer -->
  <line x1="698" y1="452" x2="666" y2="458" stroke="white" stroke-width="9" stroke-linecap="round" opacity="0.9"/>
  <line x1="666" y1="458" x2="648" y2="440" stroke="white" stroke-width="7" stroke-linecap="round" opacity="0.9"/>
  <line x1="666" y1="458" x2="646" y2="476" stroke="white" stroke-width="7" stroke-linecap="round" opacity="0.9"/>
  <!-- CD8 dots -->
  <circle cx="710" cy="428" r="9" fill="#E0F7FA" opacity="0.8"/>
  <circle cx="718" cy="408" r="7" fill="#B2EBF2" opacity="0.7"/>
  <!-- Activation ring -->
  <circle cx="782" cy="455" r="90" fill="none" stroke="#80DEEA" stroke-width="4" stroke-opacity="0.4" stroke-dasharray="18 11"/>

  <!-- ══════════════════════════════════════════════════
       T CELL 3 — bottom, slightly smaller / further
       ══════════════════════════════════════════════════ -->
  <circle cx="480" cy="810" r="78" fill="url(#tcell2Grad)" filter="url(#tcellGlow)"/>
  <!-- nucleus -->
  <ellipse cx="478" cy="816" rx="28" ry="26" fill="#006064" opacity="0.6"/>
  <!-- TCR pointing UP toward cancer -->
  <line x1="482" y1="736" x2="484" y2="706" stroke="white" stroke-width="8" stroke-linecap="round" opacity="0.85"/>
  <line x1="484" y1="706" x2="465" y2="688" stroke="white" stroke-width="6" stroke-linecap="round" opacity="0.85"/>
  <line x1="484" y1="706" x2="504" y2="688" stroke="white" stroke-width="6" stroke-linecap="round" opacity="0.85"/>
  <!-- CD8 dots -->
  <circle cx="452" cy="740" r="8" fill="#E0F7FA" opacity="0.75"/>
  <circle cx="436" cy="726" r="6" fill="#B2EBF2" opacity="0.65"/>
  <!-- Activation ring -->
  <circle cx="480" cy="810" r="78" fill="none" stroke="#80DEEA" stroke-width="3.5" stroke-opacity="0.35" stroke-dasharray="16 10"/>

  <!-- ══════════════════════════════════════════════════
       EXTRA: small distant T cell (top-right, approaching)
       ══════════════════════════════════════════════════ -->
  <circle cx="750" cy="220" r="48" fill="url(#tcell2Grad)" opacity="0.72" filter="url(#tcellGlow)"/>
  <ellipse cx="750" cy="222" rx="16" ry="14" fill="#006064" opacity="0.55"/>
  <!-- mini TCR -->
  <line x1="707" y1="245" x2="690" y2="258" stroke="white" stroke-width="5.5" stroke-linecap="round" opacity="0.8"/>
  <line x1="690" y1="258" x2="675" y2="248" stroke="white" stroke-width="4" stroke-linecap="round" opacity="0.8"/>
  <line x1="690" y1="258" x2="680" y2="272" stroke="white" stroke-width="4" stroke-linecap="round" opacity="0.8"/>

  <!-- Faint approaching arrow to cancer -->
  <line x1="715" y1="252" x2="640" y2="380"
        stroke="#26C6DA" stroke-width="5" stroke-opacity="0.22"
        stroke-dasharray="10 8" stroke-linecap="round"/>
</svg>
